<svg width="68" height="68" viewBox="0 0 68 68" fill="none" xmlns="http://www.w3.org/2000/svg">
<g filter="url(#filter0_d_56:16)">
<path d="M63.8197 55.6873L44.3423 36.2098C47.3648 32.3024 48.9998 27.5249 48.9998 22.4999C48.9998 16.4849 46.6523 10.845 42.4073 6.59247C38.1624 2.33999 32.5074 0 26.4999 0C20.4924 0 14.8375 2.34749 10.5925 6.59247C6.33999 10.8375 4 16.4849 4 22.4999C4 28.5074 6.34749 34.1624 10.5925 38.4073C14.8375 42.6598 20.4849 44.9998 26.4999 44.9998C31.5249 44.9998 36.2949 43.3648 40.2023 40.3498L59.6798 59.8197C59.7369 59.8769 59.8047 59.9222 59.8793 59.9531C59.954 59.9841 60.034 60 60.1148 60C60.1955 60 60.2756 59.9841 60.3502 59.9531C60.4248 59.9222 60.4926 59.8769 60.5498 59.8197L63.8197 56.5573C63.8769 56.5001 63.9222 56.4323 63.9531 56.3577C63.9841 56.2831 64 56.203 64 56.1223C64 56.0415 63.9841 55.9615 63.9531 55.8868C63.9222 55.8122 63.8769 55.7444 63.8197 55.6873ZM38.3799 34.3799C35.1999 37.5523 30.9849 39.2998 26.4999 39.2998C22.0149 39.2998 17.7999 37.5523 14.62 34.3799C11.4475 31.1999 9.69998 26.9849 9.69998 22.4999C9.69998 18.0149 11.4475 13.7924 14.62 10.62C17.7999 7.44747 22.0149 5.69998 26.4999 5.69998C30.9849 5.69998 35.2074 7.43997 38.3799 10.62C41.5523 13.7999 43.2998 18.0149 43.2998 22.4999C43.2998 26.9849 41.5523 31.2074 38.3799 34.3799Z" fill="#2D98A2"/>
</g>
<defs>
<filter id="filter0_d_56:16" x="0" y="0" width="68" height="68" filterUnits="userSpaceOnUse" color-interpolation-filters="sRGB">
<feFlood flood-opacity="0" result="BackgroundImageFix"/>
<feColorMatrix in="SourceAlpha" type="matrix" values="0 0 0 0 0 0 0 0 0 0 0 0 0 0 0 0 0 0 127 0" result="hardAlpha"/>
<feOffset dy="4"/>
<feGaussianBlur stdDeviation="2"/>
<feColorMatrix type="matrix" values="0 0 0 0 0 0 0 0 0 0 0 0 0 0 0 0 0 0 0.25 0"/>
<feBlend mode="normal" in2="BackgroundImageFix" result="effect1_dropShadow_56:16"/>
<feBlend mode="normal" in="SourceGraphic" in2="effect1_dropShadow_56:16" result="shape"/>
</filter>
</defs>
</svg>
